<svg height="79pt" preserveAspectRatio="xMidYMid meet" version="1.0" viewBox="0 0 271 79" width="271pt" xmlns="http://www.w3.org/2000/svg">
  <path d="m162.43791 51.208597l105.63102 0c .72743-1.329579 1.04039-2.695198 0-4.178502l-106.79343 0c-.14638 1.23268-.7708 2.321946 1.16241 4.178502z" fill="#ed1921" fill-rule="evenodd" stroke-width=".8"/>
  <path d="m150.98705 46.865948l-14.2916.164147c-1.56806 1.170652-1.73804 2.570146-.63199 4.178502l2.51827-.164146c4.1229-1.503196 9.42302-2.800528 12.40532-4.178503z" fill="#ed1921" fill-rule="evenodd" stroke-width=".8"/>
  <path d="m129.78735 47.030095l-7.64026 0c-.58859.368298-1.86897 3.088291-.68299 4.178502l7.79356 0c .84299-1.392833 1.23462-2.785668.52969-4.178502z" fill="#ed1921" fill-rule="evenodd" stroke-width=".8"/>
  <path d="m90.941496 47.030095l-89.402893 0 0 4.178502 88.524159 0c2.757863-1.441911 2.261916-3.868499.878734-4.178502z" fill="#ed1921" fill-rule="evenodd" stroke-width=".8"/>
  <g fill="#1075af" transform="matrix(.97700827 0 0 .99670003 1.783138 .526907)">
    <path d="m16.824917 42.876095l0 1.083984-17.021484 0 0-1.083984 1.40625 0q2.460938 0 3.574219-1.435547.703125-.9375.703125-4.511719l0-25.664062q0-3.017578-.380859-3.984375Q4.813199 6.54797 3.904995 6.020626 2.615933 5.317501 1.209683 5.317501l-1.40625 0 0-1.083984 17.021484 0 0 1.083984-1.435547 0q-2.43164 0-3.544921 1.435547-.732422.9375-.732422 4.511719l0 25.664062q0 3.017578.380859 3.984375.292969.732422 1.230469 1.259766 1.259765.703125 2.666015.703125l1.435547 0z" fill="#1075af"/>
    <path d="m28.192105 22.046017q2.929687-2.929688 3.457031-3.369141 1.318359-1.113281 2.841797-1.728516 1.523437-.615234 3.017578-.615234 2.519531 0 4.335938 1.464844 1.816406 1.464844 2.43164 4.248047 3.017578-3.515625 5.097656-4.59961 2.080079-1.113281 4.277344-1.113281 2.138672 0 3.779297 1.113281 1.669922 1.083985 2.636719 3.574219.644531 1.699219.644531 5.332031l0 11.542969q0 2.519531.380859 3.457031.292969.644532 1.083985 1.113282.791015.439453 2.578125.439453l0 1.054687-13.242188 0 0-1.054687.556641 0q1.728516 0 2.695312-.673828.673829-.46875.966797-1.494141.117188-.498047.117188-2.841797l0-11.542969q0-3.28125-.791016-4.628906-1.142578-1.875-3.662109-1.875-1.552735 0-3.134766.791016-1.552734.761718-3.779297 2.871093l-.05859.322266.05859 1.259766 0 12.802734q0 2.753906.292969 3.427734.322266.673829 1.171875 1.142579.849609.439453 2.900391.439453l0 1.054687-13.564453 0 0-1.054687q2.226562 0 3.046875-.527344.849609-.527344 1.171875-1.582031.146484-.498047.146484-2.900391l0-11.542969q0-3.28125-.966797-4.716797-1.289062-1.875-3.603516-1.875-1.582031 0-3.134765.84961-2.431641 1.289062-3.75 2.90039l0 14.384766q0 2.636719.351562 3.427734.38086.791016 1.083985 1.201172.732422.38086 2.929687.38086l0 1.054687-13.271484 0 0-1.054687q1.845703 0 2.578125-.38086.732422-.410156 1.113281-1.259765.380859-.878907.380859-3.369141l0-10.253906q0-4.423828-.263671-5.712891-.205079-.966797-.644532-1.318359-.439453-.38086-1.201172-.38086-.820312 0-1.96289.439454l-.439453-1.054688 8.085937-3.28125 1.259766 0 0 5.712891z" fill="#1075af"/>
    <path d="m82.186245 40.092892q-4.130859 3.193359-5.185546 3.691406-1.582032.732422-3.369141.732422-2.783203 0-4.599609-1.904297-1.78711-1.904297-1.78711-5.009766 0-1.96289.878906-3.398437 1.201172-1.992188 4.160157-3.75 2.988281-1.757813 9.902343-4.277344l0-1.054687q0-4.013672-1.289062-5.507813-1.259766-1.494141-3.691406-1.494141-1.845703 0-2.929688.996094-1.113281.996094-1.113281 2.285156l.05859 1.699219q0 1.347656-.703125 2.080078-.673828.732422-1.78711.732422-1.083984 0-1.787109-.761719-.673828-.761718-.673828-2.080078 0-2.519531 2.578125-4.628906 2.578125-2.109375 7.236328-2.109375 3.574219 0 5.859375 1.201172 1.728516.908203 2.548828 2.841797.527344 1.259765.527344 5.15625l0 9.111328q0 3.837891.146484 4.716797.146485.849609.46875 1.142578.351563.292969.791016.292969.46875 0 .820312-.205078.615235-.38086 2.373047-2.138672l0 1.640625q-3.28125 4.394531-6.269531 4.394531-1.435547 0-2.285156-.996094-.84961-.996094-.878907-3.398437zm0-1.904297l0-10.22461q-4.423828 1.757813-5.71289 2.490235-2.314453 1.289062-3.310547 2.695312-.996094 1.40625-.996094 3.076172 0 2.109375 1.259766 3.515625 1.259765 1.376953 2.90039 1.376953 2.226563 0 5.859375-2.929687z" fill="#1075af"/>
    <path d="m100.76046 34.174923q-2.460933-1.201172-3.779293-3.339844-1.318359-2.167969-1.318359-4.77539 0-3.984375 2.988281-6.855469 3.017581-2.871094 7.705081-2.871094 3.83789 0 6.65039 1.875l5.68359 0q1.25977 0 1.46485.08789.20507.05859.29296.234375.17579.263672.17579.9375 0 .761718-.14649 1.054687-.0879.146485-.32226.234375-.20508.08789-1.46485.08789l-3.48633 0q1.64063 2.109375 1.64063 5.390625 0 3.75-2.8711 6.416015-2.87109 2.666016-7.70507 2.666016-1.99219 0-4.07227-.585937-1.28906 1.113281-1.75781 1.96289-.439455.820313-.439455 1.40625 0 .498047.468755.966797.49804.46875 1.90429.673828.82031.117188 4.10156.205078 6.03516.146485 7.82227.410157 2.72461.380859 4.33594 2.021484 1.64062 1.640625 1.64062 4.042969 0 3.310547-3.10547 6.210937-4.57031 4.277344-11.92382 4.277344-5.654301 0-9.550785-2.548828-2.197266-1.464844-2.197266-3.046875 0-.703125.322266-1.40625.498047-1.083985 2.050781-3.017578.205078-.263672 2.988281-3.164063-1.523437-.908203-2.167968-1.611328-.615235-.732422-.615235-1.640625 0-1.025391.820313-2.402344.849609-1.376953 3.867183-3.896484zm5.09766-16.435547q-2.16797 0-3.63281 1.728516-1.46485 1.728515-1.46485 5.302734 0 4.628906 1.99219 7.177734 1.52344 1.933594 3.86719 1.933594 2.22656 0 3.66211-1.669922 1.43555-1.669922 1.43555-5.24414 0-4.658203-2.02149-7.294922-1.49414-1.933594-3.83789-1.933594zm-5.39062 26.220703q-1.376958 1.494141-2.080083 2.783203-.703125 1.289063-.703125 2.373047 0 1.40625 1.699219 2.460938 2.929689 1.816406 8.466799 1.816406 5.27344 0 7.76367-1.875 2.51953-1.845703 2.51953-3.955078 0-1.523438-1.49414-2.167969-1.52344-.644531-6.03516-.761719-6.59179-.175781-10.13671-.673828z" fill="#1075af"/>
    <path d="m128.09445 27.231564q-.0293 5.976562 2.90039 9.375 2.92969 3.398437 6.88476 3.398437 2.63672 0 4.57032-1.435547 1.96289-1.464844 3.28125-4.980469l.9082.585938q-.61523 4.013672-3.57422 7.324219-2.95898 3.28125-7.41211 3.28125-4.83398 0-8.29101-3.75-3.42774-3.779297-3.42774-10.136719 0-6.884766 3.51563-10.722656 3.54492-3.867188 8.87695-3.867188 4.51172 0 7.41211 2.988281 2.90039 2.958985 2.90039 7.939454l-18.54492 0zm0-1.699219l12.42187 0q-.14648-2.578125-.61523-3.632813-.73242-1.640625-2.19727-2.578125-1.43554-.9375-3.01757-.9375-2.43165 0-4.36524 1.904297-1.9043 1.875-2.22656 5.244141z" fill="#1075af"/>
    <path d="m183.02609 4.233517l.43945 9.316406-1.11328 0q-.32226-2.460938-.87891-3.515625-.9082-1.699219-2.43164-2.490234-1.49414-.820313-3.95507-.820313l-5.59571 0 0 30.351563q0 3.662109.79102 4.570312 1.11328 1.230469 3.42773 1.230469l1.37696 0 0 1.083984-16.84571 0 0-1.083984 1.40625 0q2.51953 0 3.57422-1.523438.64453-.9375.64453-4.277343l0-30.351563-4.77539 0q-2.7832 0-3.95508.410156-1.52343.556641-2.60742 2.138672-1.08398 1.582031-1.28906 4.277344l-1.11328 0 .46875-9.316406 32.43164 0z" fill="#1075af"/>
    <path d="m192.72335 16.333126l0 6.035156q3.36915-6.035156 6.91407-6.035156 1.61133 0 2.66601.996094 1.05469.966797 1.05469 2.255859 0 1.142578-.76172 1.933594-.76172.791016-1.8164.791016-1.0254 0-2.31446-.996094-1.25976-1.025391-1.875-1.025391-.52734 0-1.14258.585938-1.31836 1.201172-2.72461 3.955078l0 12.861328q0 2.226562.55665 3.369141.38085.791015 1.34765 1.318359.9668.527344 2.7832.527344l0 1.054687-13.74023 0 0-1.054687q2.05078 0 3.04688-.644532.73242-.46875 1.02539-1.49414.14648-.498047.14648-2.841797l0-10.400391q0-4.6875-.20508-5.566406-.17578-.908203-.70312-1.318359-.49805-.410157-1.25977-.410157-.9082 0-2.05078.439454l-.29297-1.054688 8.11524-3.28125 1.23046 0z" fill="#1075af"/>
    <path d="m228.43625 17.124142l0 16.259765q0 4.658203.20507 5.712891.23438 1.025391.70313 1.435547.49805.410156 1.14258.410156.9082 0 2.05078-.498047l.41015 1.025391-8.02734 3.310547-1.31836 0 0-5.683594q-3.45703 3.75-5.27344 4.716797-1.8164.966797-3.83789.966797-2.25586 0-3.92578-1.289063-1.64062-1.318359-2.28515-3.36914-.64454-2.050782-.64454-5.800782l0-11.982422q0-1.904296-.41015-2.636718-.41016-.732422-1.23047-1.113282-.79102-.410156-2.90039-.380859l0-1.083984 9.4043 0 0 17.958984q0 3.75 1.28906 4.921875 1.31836 1.171875 3.16406 1.171875 1.25977 0 2.8418-.791016 1.61133-.791015 3.80859-3.017578l0-15.205078q0-2.285156-.84961-3.076172-.82031-.820312-3.45703-.878906l0-1.083984 9.14063 0z" fill="#1075af"/>
    <path d="m252.2546 16.333126l0 9.140625-.96679 0q-1.11328-4.306641-2.8711-5.859375-1.72851-1.552734-4.42382-1.552734-2.05079 0-3.31055 1.083984-1.25977 1.083984-1.25977 2.402344 0 1.640625.9375 2.8125.90821 1.201172 3.69141 2.548828l4.27734 2.080078q5.94727 2.900391 5.94727 7.646484 0 3.66211-2.7832 5.917969-2.75391 2.226563-6.18164 2.226563-2.46094 0-5.625-.878907-.9668-.292968-1.58204-.292968-.67382 0-1.05468.761718l-.9668 0 0-9.580078.9668 0q .82031 4.101563 3.13476 6.181641 2.31446 2.080078 5.18555 2.080078 2.02148 0 3.28125-1.171875 1.28906-1.201172 1.28906-2.871094 0-2.021484-1.43555-3.398437-1.40625-1.376953-5.65429-3.486328-4.24805-2.109375-5.56641-3.808594-1.31836-1.669922-1.31836-4.21875 0-3.310547 2.25586-5.537109 2.28516-2.226563 5.88867-2.226563 1.58203 0 3.83789.673828 1.49414.439453 1.99219.439453.46875 0 .73242-.205078.26368-.205078.61524-.908203l.96679 0z" fill="#1075af"/>
    <path d="m266.02414 8.305782l0 8.81836 6.26953 0 0 2.050781-6.26953 0 0 17.402344q0 2.607422.73242 3.515625.76172.908203 1.93359.908203.9668 0 1.875-.585938.9082-.615234 1.40625-1.787109l1.14258 0q-1.02539 2.871094-2.90039 4.335937-1.875 1.435547-3.86719 1.435547-1.34765 0-2.63672-.732422-1.28906-.761718-1.90429-2.138671-.61524-1.40625-.61524-4.306641l0-18.046875-4.24805 0 0-.966797q1.61133-.644531 3.28125-2.167969 1.69922-1.552734 3.01758-3.662109.67383-1.113281 1.875-4.072266l.90821 0z" fill="#1075af"/>
  </g>
  <path d="M133.40598 54.574186C127.65751 38.228842 149.3806 29.475895 154.76276 47.958223" fill="none" fill-rule="evenodd" stroke="#d3cbb9" stroke-width="2.368332"/>
  <path d="m149.69031 59.565174c.50642 1.173766 3.1298 4.883925 3.0178 5.339199-.10008.406792-5.76434 2.570015-5.95476 2.157846-.35494-.76833-1.30171-4.720125-1.45498-5.482827-5.05279-6.992982 5.57912-7.81113 4.39194-2.014218zm8.3224-12.767646l6.61596 19.035401-27.27634 9.285561-7.19631-19.383609z" fill="#ffdf89" fill-opacity=".980392" fill-rule="evenodd" stroke-width=".8"/>
  <path d="m140.60348 39.211207c.76191-.178291 1.46806-.32624 1.9474-.366969.49866-.04237.81919-.01034 1.08391.0365.36482-.69741.75983-1.690236.99623-2.426947l-1.45486-.213554c-.62628 1.109776-1.48454 2.154497-2.26879 2.751547-.11648.08822-.18349.139357-.30389.219427z" fill="#1075af"/>
</svg>
